<svg xmlns="http://www.w3.org/2000/svg" viewBox="0 0 512 512"><defs><style>.cls-1{fill:#ffc878;}.cls-2{fill:#f4bd73;}.cls-3{fill:none;stroke:#000;stroke-miterlimit:10;stroke-width:16px;}</style></defs><g id="Capa_2" data-name="Capa 2"><g id="Capa_1-2" data-name="Capa 1"><circle class="cls-1" cx="256" cy="256" r="253.52"/><path class="cls-2" d="M437,75A256,256,0,0,0,75,437,256,256,0,0,0,437,75Zm-14.14,347.9A236,236,0,0,1,89.12,89.12,236,236,0,0,1,422.88,422.88Z"/><path class="cls-2" d="M456.26,248.89A50.23,50.23,0,0,0,445.35,194a30.18,30.18,0,0,1-8.9-21.48A50.22,50.22,0,0,0,405.35,126a30.25,30.25,0,0,1-16.44-16.44,50.22,50.22,0,0,0-46.54-31.1,30.18,30.18,0,0,1-21.48-8.9A50.24,50.24,0,0,0,266,58.61a30.14,30.14,0,0,1-23.25,0,50.25,50.25,0,0,0-54.9,10.92,30.18,30.18,0,0,1-21.48,8.9,50.24,50.24,0,0,0-46.54,31.1A30.19,30.19,0,0,1,103.39,126a50.24,50.24,0,0,0-31.1,46.54A30.21,30.21,0,0,1,63.4,194a50.24,50.24,0,0,0-10.92,54.9,30.2,30.2,0,0,1,0,23.24A50.24,50.24,0,0,0,63.4,327a30.21,30.21,0,0,1,8.89,21.48,50.24,50.24,0,0,0,31.1,46.54,30.22,30.22,0,0,1,16.44,16.44,50.23,50.23,0,0,0,46.54,31.1,30.18,30.18,0,0,1,21.48,8.9,50.25,50.25,0,0,0,54.9,10.92,30.11,30.11,0,0,1,23.24,0,50.29,50.29,0,0,0,54.9-10.92,30.18,30.18,0,0,1,21.48-8.9,50.22,50.22,0,0,0,46.54-31.1,30.22,30.22,0,0,1,16.44-16.44,50.24,50.24,0,0,0,31.1-46.54A30.21,30.21,0,0,1,445.34,327a50.2,50.2,0,0,0,10.92-54.89,30.22,30.22,0,0,1,0-23.25Zm-18.47,30.9a30.3,30.3,0,0,1-6.59,33.1,50.06,50.06,0,0,0-14.75,35.62,30.28,30.28,0,0,1-18.76,28.06,50.08,50.08,0,0,0-27.26,27.26,30.29,30.29,0,0,1-28.06,18.76,50.06,50.06,0,0,0-35.62,14.75,30.27,30.27,0,0,1-33.1,6.58,50.06,50.06,0,0,0-38.55,0A30.29,30.29,0,0,1,202,437.34a50,50,0,0,0-35.62-14.75,30.29,30.29,0,0,1-28.06-18.76,50.08,50.08,0,0,0-27.26-27.26A30.27,30.27,0,0,1,92.3,348.51a50.09,50.09,0,0,0-14.76-35.62A30.27,30.27,0,0,1,71,279.79a50.14,50.14,0,0,0,0-38.56,30.27,30.27,0,0,1,6.58-33.1A50.07,50.07,0,0,0,92.3,172.51a30.28,30.28,0,0,1,18.75-28.06,50,50,0,0,0,27.26-27.26,30.29,30.29,0,0,1,28.06-18.76A50,50,0,0,0,202,83.68,30.29,30.29,0,0,1,235.1,77.1a50.11,50.11,0,0,0,38.55,0,30.27,30.27,0,0,1,33.1,6.58,50.08,50.08,0,0,0,35.62,14.75,30.31,30.31,0,0,1,28.07,18.76,50,50,0,0,0,27.26,27.26,30.27,30.27,0,0,1,18.75,28.06,50.08,50.08,0,0,0,14.75,35.62,30.3,30.3,0,0,1,6.59,33.1,50.05,50.05,0,0,0,0,38.56Z"/><path class="cls-2" d="M174.33,362.48v8.75h8.75a24.09,24.09,0,0,0,24.1-24.09v-8.76h-8.76A24.09,24.09,0,0,0,174.33,362.48Z"/><path class="cls-2" d="M139.49,231.34,147,227l-4.35-7.53A23.9,23.9,0,0,0,110,210.72l-7.53,4.34,4.35,7.53a23.9,23.9,0,0,0,32.65,8.75Z"/><path class="cls-2" d="M225,145.42l7.45,4.3,4.31-7.45a23.7,23.7,0,0,0-8.67-32.36l-7.46-4.3-4.3,7.45A23.69,23.69,0,0,0,225,145.42Z"/><path class="cls-2" d="M300.61,215.79,298.12,207l-8.76,2.49a25,25,0,0,0-17.25,30.95l2.48,8.76,8.76-2.49A25.06,25.06,0,0,0,300.61,215.79Z"/><circle class="cls-2" cx="394.08" cy="296.03" r="10"/><circle class="cls-2" cx="280.89" cy="317.16" r="10"/><circle class="cls-2" cx="246.9" cy="203.95" r="10" transform="translate(6.03 414.99) rotate(-80.78)"/><circle class="cls-2" cx="142.56" cy="357.09" r="10"/><line class="cls-3" x1="256" x2="256" y2="512"/><line class="cls-3" y1="256" x2="512" y2="256"/></g></g></svg>