<svg xmlns="http://www.w3.org/2000/svg" viewBox="0 0 509 509"><defs><style>.cls-1{fill:#494949;}.cls-2{fill:#ffe192;}.cls-3{fill:#ffc878;}</style></defs><g id="Capa_2" data-name="Capa 2"><g id="Capa_1-2" data-name="Capa 1"><circle class="cls-1" cx="254.5" cy="254.5" r="254.5"/><path class="cls-2" d="M132.49,387.13v53.54a19.15,19.15,0,1,0,38.29,0V307.27l46.09,31.41v64.47a19.15,19.15,0,1,0,38.29,0V364.77l97.71,66.58v49.24a19.15,19.15,0,0,0,38.29,0V457.45L453.68,500V77.26c-145.2,0-273.29,73.19-349.42,184.69l28.23,19.23v26.1"/><path class="cls-3" d="M453.68,77.26V29A20,20,0,0,0,432.79,9,492.26,492.26,0,0,0,59.31,206a20,20,0,0,0,4.77,28.54L104.27,262C180.39,150.45,308.48,77.26,453.68,77.26Z"/></g></g></svg>