<svg xmlns="http://www.w3.org/2000/svg" viewBox="0 0 347 186.23"><g id="Capa_2" data-name="Capa 2"><g id="Capa_1-2" data-name="Capa 1"><path d="M4.5,186.23a4.49,4.49,0,0,1-4.5-4.5V163.11a4.49,4.49,0,0,1,1.54-3.39L132.16,46a23.82,23.82,0,0,1-1.8-9.92c0-10.76,3.57-19.38,10.61-25.61,10.32-9.14,27.46-12.32,51-9.45,28.27,3.45,64.56,20.33,99.57,46.32,24.43,18.14,51.95,44.16,54.62,58.41,3.93,20.94-5.23,35.63-28,44.9-14,5.7-282.59,32.52-313.17,35.56A3.39,3.39,0,0,1,4.5,186.23ZM9,165.16v11.61c119.28-11.89,295.66-30.52,305.73-34.45,18.94-7.72,25.68-18.16,22.54-34.91-1.34-7.18-18.1-28.31-51.14-52.85C252.34,29.48,217.61,13.22,190.84,10c-20.83-2.54-35.6-.1-43.9,7.25-5.1,4.52-7.58,10.7-7.58,18.88,0,5,1.27,6.75,1.5,7a4.51,4.51,0,0,1,.28,7Zm131.9-122Zm-.4-.28h0Zm0,0h0Z"/><path d="M7.82,168.28a4.5,4.5,0,0,1-.54-9c99.72-12.2,247-31.07,278.14-37.17C250.47,80,213.92,62.7,189,55.6c-28.09-8-47.93-5.12-48.13-5.09a4.5,4.5,0,0,1-1.38-8.9c.87-.13,21.6-3.21,51.46,5.19,27.35,7.69,67.89,26.93,105.74,75l.21.29a4.57,4.57,0,0,1,.35,4.48c-1.32,2.89-1.72,3.76-48.89,10.57-23.77,3.44-56.76,7.9-98,13.26C80,159.47,9.08,168.16,8.37,168.24A3.39,3.39,0,0,1,7.82,168.28Z"/><path d="M312.32,146.92a31.43,31.43,0,0,1-10-1.49c-5.6-1.87-10.16-9-11.08-17.37-1.24-11.38,4.17-21.59,14.85-28,5.49-3.29,11.23-3,15.77.67,6.15,5,8.47,15.19,6.43,20.89a7.6,7.6,0,0,1-7.25,5.42,4.5,4.5,0,0,1-1.09-8.86c.4-2-.48-7.31-3.41-10.14-1.24-1.2-2.81-2.07-5.82-.26-10.32,6.19-11,14.75-10.53,19.3.65,5.91,3.61,9.36,5,9.82,9.48,3.15,22-1.85,22.15-1.9a4.5,4.5,0,1,1,3.4,8.33A54,54,0,0,1,312.32,146.92Z"/><path d="M152.27,89.23c-16.8,0-24.45-6.65-24.45-12.82s7.65-12.81,24.45-12.81,24.45,6.64,24.45,12.81S169.07,89.23,152.27,89.23ZM137,76.41c1.23,1.34,6.44,3.82,15.29,3.82s14.06-2.48,15.28-3.82c-1.22-1.33-6.43-3.81-15.28-3.81S138.21,75.08,137,76.41Zm30.8.31h0Z"/><path d="M106.37,134.7c-17.38,0-25.29-6.82-25.29-13.16s7.91-13.17,25.29-13.17,25.3,6.83,25.3,13.17S123.76,134.7,106.37,134.7ZM90.19,121.54c1.09,1.37,6.69,4.16,16.18,4.16s15.09-2.79,16.19-4.16c-1.1-1.38-6.69-4.17-16.19-4.17S91.28,120.16,90.19,121.54Zm32.52.24h0Z"/><path d="M207.74,121.29c-13.42,0-27-4.76-27-13.87s13.58-13.88,27-13.88,27,4.77,27,13.88S221.16,121.29,207.74,121.29Zm-18-13.87c.78,1.45,7,4.87,18,4.87s17.18-3.42,18-4.87c-.79-1.46-7-4.88-18-4.88S190.56,106,189.78,107.42Zm36,.12h0Z"/></g></g></svg>