<svg xmlns="http://www.w3.org/2000/svg" xmlns:xlink="http://www.w3.org/1999/xlink" viewBox="0 0 64.81 20.49"><defs><style>.cls-1{stroke:#1d1d1b;stroke-miterlimit:10;stroke-width:0.25px;fill:url(#Degradado_sin_nombre_56);}.cls-2{font-size:12px;fill:#fff;font-family:MyriadPro-Regular, Myriad Pro;}.cls-3{letter-spacing:-0.05em;}.cls-4{letter-spacing:-0.01em;}.cls-5{fill:#e2e2e2;}.cls-6{fill:#0277bd;}.cls-7{fill:#eceff1;}</style><linearGradient id="Degradado_sin_nombre_56" x1="32.41" y1="20.37" x2="32.41" y2="0.13" gradientUnits="userSpaceOnUse"><stop offset="0" stop-color="#bc4749"/><stop offset="0.25" stop-color="#c24c4d"/><stop offset="0.56" stop-color="#d25a5a"/><stop offset="0.92" stop-color="#ec716f"/><stop offset="1" stop-color="#f37775"/></linearGradient></defs><g id="Capa_2" data-name="Capa 2"><g id="Capa_1-2" data-name="Capa 1"><rect class="cls-1" x="0.13" y="0.13" width="64.56" height="20.24"/><text class="cls-2" transform="translate(7.52 13.7)"><tspan class="cls-3">T</tspan><tspan class="cls-4" x="5.42" y="0">r</tspan><tspan x="9.23" y="0">ello</tspan></text><rect class="cls-5" x="40.35" y="0.26" width="24.23" height="19.98"/><path class="cls-6" d="M58.34,2.56H47.49a1.81,1.81,0,0,0-1.81,1.81V15.22A1.81,1.81,0,0,0,47.49,17H58.34a1.81,1.81,0,0,0,1.8-1.81V4.37A1.81,1.81,0,0,0,58.34,2.56Z"/><path class="cls-7" d="M52,13.41a.9.9,0,0,1-.9.9H48.39a.9.9,0,0,1-.9-.9V5.28a.9.9,0,0,1,.9-.91h2.72a.91.91,0,0,1,.9.91Z"/><path class="cls-7" d="M58.34,9.8a.91.91,0,0,1-.91.9H54.72a.9.9,0,0,1-.9-.9V5.28a.9.9,0,0,1,.9-.91h2.71a.91.91,0,0,1,.91.91Z"/></g></g></svg>